<svg id="visual" viewBox="0 0 900 600" width="900" height="600" xmlns="http://www.w3.org/2000/svg" xmlns:xlink="http://www.w3.org/1999/xlink" version="1.1"><path d="M0 465L16.7 466.8C33.3 468.7 66.7 472.3 100 472.3C133.3 472.3 166.7 468.7 200 469.5C233.3 470.3 266.7 475.7 300 482C333.3 488.3 366.7 495.7 400 500.2C433.3 504.7 466.7 506.3 500 507.7C533.3 509 566.7 510 600 506.7C633.3 503.3 666.7 495.7 700 488C733.3 480.3 766.7 472.7 800 468C833.3 463.3 866.7 461.7 883.3 460.8L900 460L900 601L883.3 601C866.7 601 833.3 601 800 601C766.7 601 733.3 601 700 601C666.7 601 633.3 601 600 601C566.7 601 533.3 601 500 601C466.7 601 433.3 601 400 601C366.7 601 333.3 601 300 601C266.7 601 233.3 601 200 601C166.7 601 133.3 601 100 601C66.7 601 33.3 601 16.7 601L0 601Z" fill="#fae1d6" stroke-linecap="round" stroke-linejoin="miter"></path></svg>